HIERARCHY
ROOT Pelvis
{
	OFFSET 0.000000 0.000000 0.000000
	CHANNELS 6 Xposition Yposition Zposition Xrotation Yrotation Zrotation
	JOINT LeftUpLeg_virtual
	{
		OFFSET 0.000000 0.000000 0.000000
		CHANNELS 3 Xrotation Yrotation Zrotation
		JOINT LeftUpLeg
		{
			OFFSET 8.479700 -4.795502 -0.379100
			CHANNELS 3 Xrotation Yrotation Zrotation
			JOINT LeftLeg
			{
				OFFSET 0.024144 -32.555107 0.112900
				CHANNELS 3 Xrotation Yrotation Zrotation
				JOINT LeftFoot
				{
					OFFSET -0.024144 -32.638630 -3.012600
					CHANNELS 3 Xrotation Yrotation Zrotation
					JOINT LeftToeBase
					{
						OFFSET 0.970200 -13.225400 11.864200
						CHANNELS 3 Xrotation Yrotation Zrotation
						End Site
						{
							OFFSET 0 0 0
						}
					}
				}
			}
		}
	}
	JOINT RightUpLeg_virtual
	{
		OFFSET 0.000000 0.000000 0.000000
		CHANNELS 3 Xrotation Yrotation Zrotation
		JOINT RightUpLeg
		{
			OFFSET -8.479700 -4.795502 -0.379100
			CHANNELS 3 Xrotation Yrotation Zrotation
			JOINT RightLeg
			{
				OFFSET -0.023144 -32.555092 0.112900
				CHANNELS 3 Xrotation Yrotation Zrotation
				JOINT RightFoot
				{
					OFFSET 0.023144 -32.638641 -3.012700
					CHANNELS 3 Xrotation Yrotation Zrotation
					JOINT RightToeBase
					{
						OFFSET -0.970200 -13.225400 11.864200
						CHANNELS 3 Xrotation Yrotation Zrotation
						End Site
						{
							OFFSET 0 0 0
						}
					}
				}
			}
		}
	}
	JOINT Hips_virtual
	{
		OFFSET 0.000000 0.000000 0.000000
		CHANNELS 3 Xrotation Yrotation Zrotation
		JOINT Hips
		{
			OFFSET -0.000000 -0.000000 -0.000000
			CHANNELS 3 Xrotation Yrotation Zrotation
			JOINT Spine
			{
				OFFSET 0.000000 7.722000 1.166200
				CHANNELS 3 Xrotation Yrotation Zrotation
				JOINT Spine1
				{
					OFFSET 0.000000 12.024101 0.248800
					CHANNELS 3 Xrotation Yrotation Zrotation
					JOINT Spine2
					{
						OFFSET 0.000000 11.502998 -0.491200
						CHANNELS 3 Xrotation Yrotation Zrotation
						JOINT Neck_virtual
						{
							OFFSET 0.000000 0.000000 0.000000
							CHANNELS 3 Xrotation Yrotation Zrotation
							JOINT Neck
							{
								OFFSET 0.000000 18.430702 -3.123100
								CHANNELS 3 Xrotation Yrotation Zrotation
								JOINT Head
								{
									OFFSET 0.000000 9.051102 1.034000
									CHANNELS 3 Xrotation Yrotation Zrotation
									End Site
									{
										OFFSET 0 0 0
									}
								}
							}
						}
						JOINT LeftShoulder_virtual
						{
							OFFSET 0.000000 0.000000 0.000000
							CHANNELS 3 Xrotation Yrotation Zrotation
							JOINT LeftShoulder
							{
								OFFSET 6.197800 13.665199 -4.064700
								CHANNELS 3 Xrotation Yrotation Zrotation
								JOINT LeftArm
								{
									OFFSET 7.778100 -0.187103 -1.709300
									CHANNELS 3 Xrotation Yrotation Zrotation
									JOINT LeftForeArm
									{
										OFFSET 22.049376 0.000000 0.000000
										CHANNELS 3 Xrotation Yrotation Zrotation
										JOINT LeftHand
										{
											OFFSET 23.009392 0.000000 0.000000
											CHANNELS 3 Xrotation Yrotation Zrotation
											End Site
											{
												OFFSET 0 0 0
											}
										}
									}
								}
							}
						}
						JOINT RightShoulder_virtual
						{
							OFFSET 0.000000 0.000000 0.000000
							CHANNELS 3 Xrotation Yrotation Zrotation
							JOINT RightShoulder
							{
								OFFSET -6.197800 13.665199 -4.064700
								CHANNELS 3 Xrotation Yrotation Zrotation
								JOINT RightArm
								{
									OFFSET -7.778100 -0.187103 -1.709300
									CHANNELS 3 Xrotation Yrotation Zrotation
									JOINT RightForeArm
									{
										OFFSET -22.049376 0.000000 0.000000
										CHANNELS 3 Xrotation Yrotation Zrotation
										JOINT RightHand
										{
											OFFSET -23.009392 0.000000 0.000000
											CHANNELS 3 Xrotation Yrotation Zrotation
											End Site
											{
												OFFSET 0 0 0
											}
										}
									}
								}
							}
						}
					}
				}
			}
		}
	}
}
MOTION
Frames: 7
Frame Time: 0.03333333
-10.128689 64.291695 -3.653667 0.000000 0.000000 0.000000 -2.901698 4.672949 0.374364 -61.660195 -7.998725 5.520241 62.099964 -20.298269 -9.347501 -0.382452 -4.209174 -0.751689 0.000000 0.000000 0.000000 -2.901698 4.672949 0.374364 -16.148980 -4.389632 -2.142767 81.875247 -12.185805 -7.171802 -33.073893 -0.210311 17.064435 0.000000 0.000000 0.000000 -2.901698 4.672949 0.374364 0.000000 0.000000 0.000000 8.955253 0.240396 -1.750528 3.966864 0.230936 -3.978306 0.000000 0.000000 0.000000 3.989347 0.231039 -3.977842 5.038292 -8.338513 11.033144 0.000000 0.000000 0.000000 3.989347 0.231039 -3.977842 -8.173990 -31.527989 -8.252504 -31.588556 -14.766821 -24.997731 -124.594535 -59.639709 -127.258719 0.000000 0.000000 0.000000 3.989347 0.231039 -3.977842 -8.947958 32.923236 10.353827 -34.168417 8.238678 31.408871 -129.897152 61.687653 135.132479 0.000000 0.000000 0.000000 
-10.360183 65.776741 -3.396557 0.000000 0.000000 0.000000 -0.962378 6.264118 0.605965 -60.951474 -8.005170 3.836663 57.943848 -20.050459 -8.491359 0.855950 -3.868964 -1.703317 0.000000 0.000000 0.000000 -0.962378 6.264118 0.605965 -15.829617 -5.284544 -1.710540 77.427284 -12.574540 -7.367287 -32.579774 0.144122 16.163661 0.000000 0.000000 0.000000 -0.962378 6.264118 0.605965 0.000000 0.000000 0.000000 8.259235 0.086204 -1.909542 2.568484 -0.078459 -4.312727 0.000000 0.000000 0.000000 2.590948 -0.078386 -4.312244 0.090886 -9.587595 9.553649 0.000000 0.000000 0.000000 2.590948 -0.078386 -4.312244 -8.485032 -28.820482 -9.252593 -25.663304 -15.710624 -18.176238 -134.370312 -56.428967 -136.822609 0.000000 0.000000 0.000000 2.590948 -0.078386 -4.312244 -8.020597 29.104099 7.655829 -24.846570 11.304227 29.134554 -147.298043 58.854989 149.572605 0.000000 0.000000 0.000000 
-10.556738 67.345016 -3.087240 0.000000 0.000000 0.000000 1.146557 7.744046 0.749608 -60.089737 -8.118272 2.110107 53.432584 -19.704513 -7.389437 2.172723 -3.502925 -2.781754 0.000000 0.000000 0.000000 1.146557 7.744046 0.749608 -15.678595 -5.760941 -1.087081 72.693881 -13.127717 -7.640910 -31.336040 0.480941 15.487078 0.000000 0.000000 0.000000 1.146557 7.744046 0.749608 0.000000 0.000001 0.000000 7.511629 -0.091859 -2.049698 1.064139 -0.427330 -4.603813 0.000000 0.000000 0.000000 1.086613 -0.427258 -4.603351 -5.694801 -10.493381 7.608347 0.000000 0.000000 0.000000 1.086613 -0.427258 -4.603351 -8.676803 -25.765729 -10.075468 -18.326613 -15.006487 -10.670904 -143.139974 -54.309587 -144.303865 0.000000 0.000000 0.000000 1.086613 -0.427258 -4.603351 -7.681961 25.388563 6.444245 -12.655746 14.347762 25.486332 -174.509421 58.206367 170.828400 0.000000 0.000000 0.000000 
-10.786145 69.983505 -2.433638 0.000000 0.000000 0.000000 4.070977 9.462046 1.005259 -57.480126 -8.446778 -0.313424 45.449496 -19.299949 -5.396899 4.369644 -2.482783 -4.587605 0.000000 0.000000 0.000000 4.070977 9.462046 1.005259 -14.683286 -6.318606 -0.374929 64.253311 -13.886631 -8.336784 -28.468321 1.081552 14.749850 0.000000 0.000000 0.000000 4.070977 9.462046 1.005259 0.000000 0.000000 0.000000 6.669081 -0.290523 -2.191970 -0.631353 -0.805340 -4.887747 0.000000 0.000000 0.000000 -0.608884 -0.805299 -4.887265 -14.077577 -10.176102 5.940332 0.000000 0.000000 0.000000 -0.608884 -0.805299 -4.887265 -8.036797 -21.485210 -9.500183 -14.726083 -11.896508 -5.740301 -146.957080 -62.475221 -145.446256 0.000000 0.000000 0.000000 -0.608884 -0.805299 -4.887265 -7.296017 21.402408 5.049866 -4.773016 12.248316 21.979737 165.199067 63.767527 -171.916749 0.000000 0.000000 0.000000 
-10.957703 72.511612 -1.532871 0.000000 0.000000 0.000000 6.222895 10.693926 1.248542 -53.634392 -9.048272 -2.143150 37.079024 -18.590837 -3.453420 6.632853 -1.938843 -6.229974 0.000000 0.000000 0.000000 6.222895 10.693926 1.248542 -12.692432 -7.059322 0.257717 55.309943 -14.526474 -9.470008 -24.497553 1.749221 14.454024 0.000000 0.000000 0.000000 6.222895 10.693926 1.248542 0.000001 -0.000001 0.000000 6.031067 -0.330599 -2.290861 -1.909140 -0.850889 -5.060078 0.000000 0.000000 0.000000 -1.886655 -0.850852 -5.059592 -22.734683 -9.234635 4.477809 0.000000 0.000000 0.000000 -1.886655 -0.850852 -5.059592 -7.298172 -17.415329 -8.034948 -14.064189 -8.494678 -2.706164 -146.039854 -74.946231 -142.967771 0.000000 0.000000 0.000000 -1.886655 -0.850852 -5.059592 -7.063745 17.810820 3.824990 -0.653490 7.660493 19.416993 140.339938 70.312126 -146.961342 0.000000 0.000000 0.000000 
-11.064981 74.843788 -0.373821 0.000000 0.000000 0.000000 7.613770 11.277832 1.288052 -48.707209 -9.643269 -2.828167 28.484370 -17.701374 -1.877224 9.059895 -2.254402 -7.439746 0.000000 0.000000 0.000000 7.613770 11.277832 1.288052 -9.696800 -7.880684 1.357042 45.780723 -15.346673 -11.307114 -19.279257 2.929756 14.672042 0.000000 0.000000 0.000000 7.613770 11.277832 1.288052 0.000000 -0.000001 0.000000 5.460771 -0.194859 -2.312727 -3.041140 -0.526849 -5.046611 0.000000 0.000000 0.000000 -3.018656 -0.526802 -5.046133 -31.378132 -7.839142 3.194617 0.000000 0.000000 0.000000 -3.018656 -0.526802 -5.046133 -6.651217 -13.502814 -6.091312 -14.996700 -4.896502 -0.947548 -42.584655 -87.858902 -39.723414 0.000000 0.000000 0.000000 -3.018656 -0.526802 -5.046133 -6.909962 14.522413 2.667814 1.310045 1.516589 17.537416 98.946218 73.565119 -103.010741 0.000000 0.000000 0.000000 
-11.081612 76.509552 0.843216 0.000000 0.000000 0.000000 8.548731 11.072800 0.958699 -44.510451 -9.614136 -2.103048 21.456452 -18.927730 -1.381977 12.071870 -1.313930 -8.721813 0.000000 0.000000 0.000000 8.548731 11.072800 0.958699 -6.942890 -8.735365 2.375374 37.955730 -15.439089 -12.792289 -14.238877 4.434693 14.727018 0.000000 0.000000 0.000000 8.548731 11.072800 0.958699 0.000000 -0.000001 0.000000 4.934982 0.076677 -2.184059 -4.077859 0.059076 -4.730979 0.000000 0.000000 0.000000 -4.055389 0.059095 -4.730496 -39.776382 -6.165032 2.111066 0.000000 0.000000 0.000000 -4.055389 0.059095 -4.730496 -6.234566 -9.589494 -4.102895 -16.932476 -1.577847 0.230448 18.865642 -71.495429 19.254505 0.000000 0.000000 0.000000 -4.055389 0.059095 -4.730496 -6.827207 11.482303 1.525861 1.768700 -5.447518 15.892513 58.267743 68.104786 -58.040332 0.000000 0.000000 0.000000 
